# xmcd
# 
# Track frame offsets:
#     150
#     12238
#     29747
#     46789
#     59977
#     80968
#     96328
#     116042
#     134437
#     152651
# 
# Disc length: 2260
# 
# Revision: 0
# Processed by: cddbd v1.5.2PL0 Copyright (c) Steve Scherf et al.
# Submitted via: fre:ac v1.0.31
# 
DISCID=9008d20a
DTITLE=Pierce Pettis - Father's Son
DYEAR=0
DGENRE=Country
TTITLE0=Wouldn't Change It For The World
TTITLE1=Very Same Moon
TTITLE2=A Showman's Life
TTITLE3=Don't Know Where I Am
TTITLE4=Adventures Of Me (And This Old Guitar)
TTITLE5=Your Father's Son
TTITLE6=Mr. Zeidman
TTITLE7=More
TTITLE8=Look Over Your Shoulder
TTITLE9=Instrument
EXTD=
EXTT0=
EXTT1=
EXTT2=
EXTT3=
EXTT4=
EXTT5=
EXTT6=
EXTT7=
EXTT8=
EXTT9=
PLAYORDER=
